# xmcd
#
# Track frame offsets:
#	150
#	36402
#	76026
#	116360
#	151249
#	182574
#	224478
#	260462
#	293512
#	328826
#
# Disc length: 4791 seconds
#
# Revision: 4
# Processed by: cddbd v1.5.2PL0 Copyright (c) Steve Scherf et al.
# Submitted via: audiograbber 1.83.01
#
DISCID=8412b50a
DTITLE=Fred Vargas - Hannelore Hoger - Es geht noch ein Zug von der Gare du Nor
DTITLE=d
DYEAR=2009
DGENRE=Krimi
TTITLE0=101
TTITLE1=102
TTITLE2=103
TTITLE3=104
TTITLE4=105
TTITLE5=106
TTITLE6=107
TTITLE7=108
TTITLE8=109
TTITLE9=110
EXTD=YEAR: 2009
EXTT0=
EXTT1=
EXTT2=
EXTT3=
EXTT4=
EXTT5=
EXTT6=
EXTT7=
EXTT8=
EXTT9=
PLAYORDER=
